<svg width="24" height="24" viewBox="0 0 24 24" fill="none" xmlns="http://www.w3.org/2000/svg">
<rect width="24" height="24" fill="#111111"/>
<path d="M5 6H9.2C9.94261 6 10.6548 6.28095 11.1799 6.78105C11.705 7.28115 12 7.95942 12 8.66667V18C12 17.4696 11.7788 16.9609 11.3849 16.5858C10.9911 16.2107 10.457 16 9.9 16H5V6Z" stroke="#E3B505" stroke-width="1.5" stroke-linecap="round" stroke-linejoin="round"/>
<path d="M19 6H14.8C14.0574 6 13.3452 6.28095 12.8201 6.78105C12.295 7.28115 12 7.95942 12 8.66667V18C12 17.4696 12.2212 16.9609 12.6151 16.5858C13.0089 16.2107 13.543 16 14.1 16H19V6Z" stroke="#E3B505" stroke-width="1.5" stroke-linecap="round" stroke-linejoin="round"/>
</svg>
